<svg width="110" height="30" viewBox="0 0 110 30" fill="none" xmlns="http://www.w3.org/2000/svg">
<g clip-path="url(#clip0_33_157)">
<path d="M15 0C6.7125 0 0 6.7125 0 15C0 21.6375 4.29375 27.2437 10.2562 29.2313C11.0062 29.3625 11.2875 28.9125 11.2875 28.5187C11.2875 28.1625 11.2688 26.9813 11.2688 25.725C7.5 26.4188 6.525 24.8062 6.225 23.9625C6.05625 23.5312 5.325 22.2 4.6875 21.8438C4.1625 21.5625 3.4125 20.8687 4.66875 20.85C5.85 20.8312 6.69375 21.9375 6.975 22.3875C8.325 24.6562 10.4813 24.0188 11.3438 23.625C11.475 22.65 11.8687 21.9937 12.3 21.6187C8.9625 21.2437 5.475 19.95 5.475 14.2125C5.475 12.5813 6.05625 11.2312 7.0125 10.1812C6.8625 9.80625 6.3375 8.26875 7.1625 6.20625C7.1625 6.20625 8.41875 5.8125 11.2875 7.74375C12.4875 7.40625 13.7625 7.2375 15.0375 7.2375C16.3125 7.2375 17.5875 7.40625 18.7875 7.74375C21.6562 5.79375 22.9125 6.20625 22.9125 6.20625C23.7375 8.26875 23.2125 9.80625 23.0625 10.1812C24.0188 11.2312 24.6 12.5625 24.6 14.2125C24.6 19.9688 21.0938 21.2437 17.7563 21.6187C18.3 22.0875 18.7688 22.9875 18.7688 24.3938C18.7688 26.4 18.75 28.0125 18.75 28.5187C18.75 28.9125 19.0312 29.3813 19.7812 29.2313C22.7595 28.2267 25.3475 26.3131 27.1808 23.76C29.014 21.207 30 18.1431 30 15C30 6.7125 23.2875 0 15 0Z" fill="#2F72FF"/>
</g>
<path d="M43.9062 24.3047C42.3047 24.3047 40.9141 23.9492 39.7344 23.2383C38.5547 22.5195 37.6406 21.5 36.9922 20.1797C36.3516 18.8594 36.0312 17.293 36.0312 15.4805V15.4688C36.0312 13.6875 36.3516 12.1484 36.9922 10.8516C37.6406 9.55469 38.5508 8.55469 39.7227 7.85156C40.9023 7.14062 42.2891 6.78516 43.8828 6.78516C45.1953 6.78516 46.3438 7.01953 47.3281 7.48828C48.3203 7.94922 49.1289 8.58203 49.7539 9.38672C50.3867 10.1914 50.8164 11.1094 51.043 12.1406L51.0781 12.3281H48.3945L48.3477 12.2109C48.0039 11.2266 47.4531 10.4648 46.6953 9.92578C45.9375 9.38672 45 9.11719 43.8828 9.11719C42.8203 9.11719 41.9023 9.37109 41.1289 9.87891C40.3555 10.3789 39.7578 11.1055 39.3359 12.0586C38.9219 13.0039 38.7148 14.1367 38.7148 15.457V15.4688C38.7148 16.8125 38.9258 17.9727 39.3477 18.9492C39.7773 19.9258 40.3828 20.6758 41.1641 21.1992C41.9453 21.7148 42.8672 21.9727 43.9297 21.9727C44.8516 21.9727 45.6602 21.793 46.3555 21.4336C47.0586 21.0742 47.6055 20.5742 47.9961 19.9336C48.3867 19.2852 48.5898 18.5312 48.6055 17.6719V17.3789H44.1875V15.2344H51.207V17.0391C51.207 18.5469 50.9141 19.8438 50.3281 20.9297C49.7422 22.0156 48.9062 22.8516 47.8203 23.4375C46.7344 24.0156 45.4297 24.3047 43.9062 24.3047ZM53.7383 24V11.6016H56.293V24H53.7383ZM55.0156 9.63281C54.6016 9.63281 54.2461 9.48828 53.9492 9.19922C53.6602 8.91016 53.5156 8.5625 53.5156 8.15625C53.5156 7.74219 53.6602 7.39063 53.9492 7.10156C54.2461 6.8125 54.6016 6.66797 55.0156 6.66797C55.4375 6.66797 55.793 6.8125 56.082 7.10156C56.3711 7.39063 56.5156 7.74219 56.5156 8.15625C56.5156 8.5625 56.3711 8.91016 56.082 9.19922C55.793 9.48828 55.4375 9.63281 55.0156 9.63281ZM63.5117 24.2109C62.2617 24.2109 61.3359 23.9375 60.7344 23.3906C60.1328 22.8438 59.832 21.957 59.832 20.7305V13.6172H58.0273V11.6016H59.832V8.39062H62.4336V11.6016H64.8242V13.6172H62.4336V20.4961C62.4336 21.1367 62.5703 21.5781 62.8438 21.8203C63.1172 22.0625 63.5312 22.1836 64.0859 22.1836C64.2344 22.1836 64.3672 22.1797 64.4844 22.1719C64.6016 22.1562 64.7148 22.1445 64.8242 22.1367V24.1055C64.6602 24.1289 64.4648 24.1523 64.2383 24.1758C64.0117 24.1992 63.7695 24.2109 63.5117 24.2109ZM67.3555 24V7.08984H69.9922V14.2383H78.6641V7.08984H81.3008V24H78.6641V16.5117H69.9922V24H67.3555ZM88.5195 24.2461C87.6055 24.2461 86.8281 24.0625 86.1875 23.6953C85.5547 23.3203 85.0703 22.7891 84.7344 22.1016C84.4062 21.4062 84.2422 20.582 84.2422 19.6289V11.6016H86.7852V19.125C86.7852 20.0703 87 20.7969 87.4297 21.3047C87.8594 21.8047 88.5195 22.0547 89.4102 22.0547C90.0195 22.0547 90.543 21.9219 90.9805 21.6562C91.4258 21.3906 91.7656 21.0156 92 20.5312C92.2422 20.0469 92.3633 19.4844 92.3633 18.8438V11.6016H94.918V24H92.3633V22.1367H92.293C91.9648 22.7695 91.4844 23.2812 90.8516 23.6719C90.2266 24.0547 89.4492 24.2461 88.5195 24.2461ZM104.223 24.2344C103.332 24.2344 102.555 24.0312 101.891 23.625C101.227 23.2109 100.711 22.6445 100.344 21.9258H100.262V24H97.7188V6.9375H100.262V13.6758H100.344C100.711 12.9648 101.234 12.4023 101.914 11.9883C102.594 11.5742 103.371 11.3672 104.246 11.3672C105.285 11.3672 106.188 11.6289 106.953 12.1523C107.727 12.668 108.328 13.4062 108.758 14.3672C109.188 15.3281 109.402 16.4688 109.402 17.7891V17.8008C109.402 19.1133 109.188 20.2539 108.758 21.2227C108.336 22.1836 107.734 22.9258 106.953 23.4492C106.18 23.9727 105.27 24.2344 104.223 24.2344ZM103.543 22.0547C104.215 22.0547 104.793 21.8867 105.277 21.5508C105.77 21.207 106.145 20.7148 106.402 20.0742C106.668 19.4336 106.801 18.6758 106.801 17.8008V17.7891C106.801 16.9141 106.668 16.1602 106.402 15.5273C106.145 14.8945 105.77 14.4062 105.277 14.0625C104.793 13.7188 104.215 13.5469 103.543 13.5469C102.895 13.5469 102.324 13.7227 101.832 14.0742C101.34 14.418 100.953 14.9102 100.672 15.5508C100.391 16.1836 100.25 16.9297 100.25 17.7891V17.8008C100.25 18.6602 100.387 19.4102 100.66 20.0508C100.941 20.6914 101.328 21.1875 101.82 21.5391C102.312 21.8828 102.887 22.0547 103.543 22.0547Z" fill="#2F72FF"/>
<defs>
<clipPath id="clip0_33_157">
<rect width="30" height="30" fill="white"/>
</clipPath>
</defs>
</svg>
