<svg width="165" height="99" viewBox="0 0 165 99" fill="none" xmlns="http://www.w3.org/2000/svg">
<path d="M81.9952 41.5931C86.7049 41.5931 90.5228 37.7752 90.5228 33.0656C90.5228 28.3559 86.7049 24.538 81.9952 24.538C77.2856 24.538 73.4677 28.3559 73.4677 33.0656C73.4677 37.7752 77.2856 41.5931 81.9952 41.5931Z" fill="#ECF6FF"/>
<path d="M81.9956 43.7836C79.1327 43.7836 76.4414 42.6686 74.417 40.6444C72.3928 38.62 71.2778 35.9287 71.2778 33.0657C71.2778 30.2031 72.3926 27.5118 74.417 25.4871C76.4414 23.4629 79.1327 22.3481 81.9956 22.3481C84.8585 22.3481 87.5498 23.4629 89.5742 25.4871C91.5985 27.5115 92.7134 30.2028 92.7134 33.0657C92.7134 35.9286 91.5986 38.6199 89.5742 40.6444C87.5498 42.6686 84.8585 43.7836 81.9956 43.7836ZM81.9956 26.7287C80.3028 26.7287 78.7114 27.3876 77.5147 28.5849C76.3177 29.7819 75.6584 31.3733 75.6584 33.0658C75.6584 34.7587 76.3177 36.3501 77.5147 37.5471C78.7116 38.7442 80.303 39.4034 81.9956 39.4034C83.6882 39.4034 85.2799 38.7442 86.4766 37.5471C87.6736 36.3501 88.3328 34.759 88.3328 33.0658C88.3328 31.3733 87.6736 29.7819 86.4766 28.5849C85.2799 27.3878 83.6883 26.7287 81.9956 26.7287Z" fill="#2F72FF"/>
<path d="M81.9956 57.7614C71.6639 57.7614 61.3321 55.9036 51.4991 52.1881C50.3675 51.7606 49.7969 50.4967 50.2244 49.3652C50.6519 48.2337 51.9154 47.6634 53.0473 48.0904C71.7148 55.144 92.2759 55.144 110.944 48.0904C112.075 47.6626 113.339 48.2334 113.767 49.3652C114.194 50.4967 113.624 51.7606 112.492 52.1881C102.659 55.9033 92.3273 57.7614 81.9956 57.7614Z" fill="#2F72FF"/>
<path d="M61.1053 52.9283H56.7947C61.6954 61.8003 71.1432 67.8098 81.9956 67.8098C92.8484 67.8098 102.296 61.8003 107.197 52.9283H102.886C89.1824 56.4435 74.809 56.4435 61.1053 52.9283Z" fill="#ECF6FF"/>
<path d="M81.9956 70C70.7241 70 60.3331 63.8641 54.8776 53.9874C54.5029 53.3088 54.5147 52.4829 54.9085 51.8153C55.3022 51.1477 56.0196 50.7381 56.7947 50.7381H61.1054C61.2889 50.7381 61.4718 50.7611 61.6497 50.8066C68.2918 52.5104 75.1373 53.3742 81.9959 53.3742C88.8545 53.3742 95.6998 52.5105 102.342 50.8066C102.52 50.7611 102.703 50.7381 102.886 50.7381H107.197C107.972 50.7381 108.69 51.1477 109.083 51.8153C109.477 52.4829 109.489 53.3088 109.114 53.9874C103.658 63.8641 93.2671 70 81.9956 70ZM60.8284 55.1184C65.8154 61.6755 73.6227 65.6194 81.9958 65.6194C90.3688 65.6194 98.1762 61.6753 103.163 55.1184H103.161C96.2477 56.8677 89.1289 57.7545 81.996 57.7545C74.8631 57.7545 67.7443 56.8677 60.8312 55.1184H60.8284Z" fill="#2F72FF"/>
<path d="M61.3488 26.8949C59.5922 26.8949 57.9364 26.1237 56.8059 24.7796L50.7357 17.5622C48.945 15.4331 48.8848 12.2936 50.5927 10.0974L56.6629 2.29195C57.7959 0.835078 59.5037 0 61.3488 0C63.1941 0 64.902 0.835078 66.0347 2.29168L70.6518 8.22896C71.3943 9.18367 71.2222 10.56 70.2675 11.3023C69.313 12.0448 67.9367 11.8728 67.1939 10.9179L62.5768 4.98094C62.1704 4.45854 61.633 4.38061 61.3488 4.38061C61.0647 4.38061 60.5272 4.45853 60.1208 4.98121L54.0509 12.7865C53.6034 13.3621 53.619 14.185 54.0883 14.7431L60.1585 21.9604C60.5641 22.4428 61.0786 22.5148 61.349 22.5148C61.6195 22.5148 62.1341 22.4428 62.5399 21.9604L66.7755 16.9243C67.5542 15.998 68.9356 15.8796 69.8616 16.6582C70.7871 17.4371 70.9062 18.8187 70.1275 19.7442L65.8925 24.78C64.7611 26.1237 63.1053 26.8949 61.3488 26.8949Z" fill="#2F72FF"/>
<path d="M61.3488 32.8098C60.1391 32.8098 59.1585 31.829 59.1585 30.6195V24.6057C59.1585 23.3963 60.1391 22.4155 61.3488 22.4155C62.5585 22.4155 63.539 23.3963 63.539 24.6057V30.6195C63.539 31.8291 62.5585 32.8098 61.3488 32.8098Z" fill="#2F72FF"/>
<path d="M104.885 26.8949C103.128 26.8949 101.472 26.1237 100.342 24.7796L94.2715 17.5622C92.4807 15.4329 92.4207 12.2935 94.1287 10.0974L100.199 2.29195C101.331 0.835078 103.039 0 104.885 0C106.73 0 108.437 0.835078 109.57 2.29168L114.188 8.22896C114.93 9.18367 114.758 10.56 113.803 11.3023C112.849 12.0445 111.472 11.8728 110.73 10.9179L106.113 4.98094C105.706 4.45854 105.169 4.38061 104.885 4.38061C104.601 4.38061 104.063 4.45853 103.657 4.98121L97.5869 12.7865C97.1393 13.3621 97.155 14.185 97.6244 14.7431L103.695 21.9604C104.1 22.4428 104.614 22.5148 104.885 22.5148C105.156 22.5148 105.67 22.4428 106.076 21.9604L110.311 16.9243C111.09 15.9984 112.471 15.8796 113.397 16.6582C114.323 17.4371 114.442 18.8187 113.663 19.7442L109.428 24.78C108.297 26.1237 106.641 26.8949 104.885 26.8949Z" fill="#2F72FF"/>
<path d="M104.885 32.8098C103.675 32.8098 102.694 31.829 102.694 30.6195V24.6057C102.694 23.3963 103.675 22.4155 104.885 22.4155C106.094 22.4155 107.075 23.3963 107.075 24.6057V30.6195C107.075 31.8291 106.094 32.8098 104.885 32.8098Z" fill="#2F72FF"/>
<path d="M8.35547 98.3223C7.04036 98.3223 5.9043 98.0228 4.94727 97.4238C3.99023 96.8249 3.2513 95.9753 2.73047 94.875C2.20964 93.7747 1.94922 92.4694 1.94922 90.959V90.9492C1.94922 89.4323 2.20964 88.127 2.73047 87.0332C3.2513 85.9329 3.98698 85.0833 4.9375 84.4844C5.89453 83.8854 7.0306 83.5859 8.3457 83.5859C9.38086 83.5859 10.3184 83.791 11.1582 84.2012C11.998 84.6048 12.6849 85.1647 13.2188 85.8809C13.7526 86.5905 14.0846 87.4108 14.2148 88.3418V88.4102H12.0371L12.0176 88.332C11.8743 87.7591 11.6302 87.2643 11.2852 86.8477C10.9466 86.431 10.5267 86.1087 10.0254 85.8809C9.5306 85.6465 8.9707 85.5293 8.3457 85.5293C7.49935 85.5293 6.76367 85.7507 6.13867 86.1934C5.52018 86.6361 5.04167 87.2611 4.70312 88.0684C4.36458 88.8757 4.19531 89.8327 4.19531 90.9395V90.959C4.19531 92.0658 4.36458 93.026 4.70312 93.8398C5.04167 94.6471 5.52344 95.2721 6.14844 95.7148C6.77344 96.1576 7.50911 96.3789 8.35547 96.3789C8.98047 96.3789 9.54036 96.2747 10.0352 96.0664C10.5365 95.8516 10.9564 95.5488 11.2949 95.1582C11.64 94.7676 11.8809 94.2988 12.0176 93.752L12.0371 93.7031H14.2148V93.7617C14.0781 94.6732 13.7428 95.4707 13.209 96.1543C12.6816 96.8379 12.0013 97.3717 11.168 97.7559C10.3411 98.1335 9.40365 98.3223 8.35547 98.3223ZM19.8809 98V83.9082H22.0781V96.1055H28.6699V98H19.8809ZM39.7363 98.3223C38.3691 98.3223 37.194 98.0228 36.2109 97.4238C35.2279 96.8184 34.4694 95.9655 33.9355 94.8652C33.4082 93.765 33.1445 92.4629 33.1445 90.959V90.9395C33.1445 89.429 33.4115 88.127 33.9453 87.0332C34.4857 85.9329 35.2474 85.0833 36.2305 84.4844C37.2201 83.8854 38.3887 83.5859 39.7363 83.5859C41.0905 83.5859 42.2591 83.8854 43.2422 84.4844C44.2253 85.0833 44.9837 85.9329 45.5176 87.0332C46.0514 88.1335 46.3184 89.4355 46.3184 90.9395V90.959C46.3184 92.4629 46.0514 93.765 45.5176 94.8652C44.9902 95.9655 44.2318 96.8184 43.2422 97.4238C42.2591 98.0228 41.0905 98.3223 39.7363 98.3223ZM39.7363 96.3789C40.6283 96.3789 41.3965 96.1543 42.041 95.7051C42.6921 95.2559 43.1934 94.6276 43.5449 93.8203C43.8965 93.0065 44.0723 92.0527 44.0723 90.959V90.9395C44.0723 89.8392 43.8965 88.8854 43.5449 88.0781C43.1934 87.2643 42.6921 86.6361 42.041 86.1934C41.39 85.7507 40.6217 85.5293 39.7363 85.5293C38.8509 85.5293 38.0827 85.7507 37.4316 86.1934C36.7806 86.6361 36.276 87.2611 35.918 88.0684C35.5599 88.8757 35.3809 89.8327 35.3809 90.9395V90.959C35.3809 92.0527 35.5566 93.0065 35.9082 93.8203C36.2598 94.6341 36.7611 95.2656 37.4121 95.7148C38.0632 96.1576 38.8379 96.3789 39.7363 96.3789ZM54.4648 98L50.6562 83.9082H52.9512L55.5391 94.875H55.6465L58.5957 83.9082H60.6465L63.6055 94.875H63.7129L66.3008 83.9082H68.5762L64.7773 98H62.707L59.6797 87.4531H59.5625L56.5449 98H54.4648ZM73.998 98V83.9082H76L83.9785 95.2559L82.2891 94.1816H83.3633V83.9082H85.502V98H83.5195L75.5215 86.6523L77.2207 87.7266H76.1465V98H73.998ZM91.5977 93.2832V91.3398H98.0723V93.2832H91.5977ZM104.158 98V83.9082H109.227C110.626 83.9082 111.821 84.1849 112.811 84.7383C113.8 85.2852 114.555 86.0827 115.076 87.1309C115.604 88.1725 115.867 89.4323 115.867 90.9102V90.9297C115.867 92.4206 115.604 93.6934 115.076 94.748C114.555 95.8027 113.8 96.61 112.811 97.1699C111.827 97.7233 110.633 98 109.227 98H104.158ZM106.355 96.1055H108.992C109.975 96.1055 110.812 95.9069 111.502 95.5098C112.199 95.1061 112.726 94.5202 113.084 93.752C113.449 92.9772 113.631 92.0462 113.631 90.959V90.9395C113.631 89.8522 113.449 88.9277 113.084 88.166C112.719 87.3978 112.189 86.8118 111.492 86.4082C110.802 86.0046 109.969 85.8027 108.992 85.8027H106.355V96.1055ZM121.631 98V83.9082H130.586V85.8027H123.828V89.9141H130.225V91.7305H123.828V96.1055H130.586V98H121.631ZM140.471 98L135.461 83.9082H137.834L141.613 95.4023H141.75L145.539 83.9082H147.912L142.902 98H140.471ZM157.768 98.3223C156.706 98.3223 155.782 98.1562 154.994 97.8242C154.206 97.4857 153.581 97.0202 153.119 96.4277C152.663 95.8288 152.403 95.1289 152.338 94.3281L152.328 94.2012H154.486L154.496 94.3086C154.548 94.7383 154.717 95.1094 155.004 95.4219C155.297 95.7344 155.688 95.9785 156.176 96.1543C156.671 96.3236 157.23 96.4082 157.855 96.4082C158.461 96.4082 158.992 96.3171 159.447 96.1348C159.91 95.9525 160.271 95.6953 160.531 95.3633C160.792 95.0312 160.922 94.6471 160.922 94.2109V94.2012C160.922 93.6543 160.717 93.2083 160.307 92.8633C159.903 92.5117 159.232 92.235 158.295 92.0332L156.762 91.7012C155.342 91.3952 154.304 90.9134 153.646 90.2559C152.989 89.5918 152.66 88.7422 152.66 87.707V87.6973C152.667 86.8835 152.888 86.1706 153.324 85.5586C153.76 84.9401 154.363 84.4583 155.131 84.1133C155.899 83.7617 156.781 83.5859 157.777 83.5859C158.767 83.5859 159.633 83.7585 160.375 84.1035C161.124 84.4421 161.713 84.9076 162.143 85.5C162.579 86.0859 162.823 86.75 162.875 87.4922L162.885 87.6289H160.756L160.736 87.5117C160.671 87.1081 160.508 86.7565 160.248 86.457C159.994 86.1576 159.652 85.9232 159.223 85.7539C158.799 85.5781 158.305 85.4935 157.738 85.5C157.185 85.5 156.693 85.5846 156.264 85.7539C155.834 85.9167 155.495 86.1543 155.248 86.4668C155.007 86.7793 154.887 87.1536 154.887 87.5898V87.5996C154.887 88.1204 155.085 88.5534 155.482 88.8984C155.886 89.2435 156.54 89.5137 157.445 89.709L158.979 90.041C160.456 90.3535 161.521 90.8223 162.172 91.4473C162.823 92.0723 163.148 92.9121 163.148 93.9668V93.9766C163.148 94.8685 162.927 95.64 162.484 96.291C162.048 96.9355 161.426 97.4368 160.619 97.7949C159.818 98.1465 158.868 98.3223 157.768 98.3223Z" fill="#2F72FF"/>
</svg>
