<svg width="137" height="30" viewBox="0 0 137 30" fill="none" xmlns="http://www.w3.org/2000/svg">
<g clip-path="url(#clip0_33_276)">
<path d="M30 15C30 18.9782 28.4196 22.7936 25.6066 25.6066C22.7936 28.4196 18.9782 30 15 30C11.0218 30 7.20644 28.4196 4.3934 25.6066C1.58035 22.7936 0 18.9782 0 15C0 11.0218 1.58035 7.20644 4.3934 4.3934C7.20644 1.58035 11.0218 0 15 0C18.9782 0 22.7936 1.58035 25.6066 4.3934C28.4196 7.20644 30 11.0218 30 15ZM15.5381 11.0738C14.0781 11.6813 11.1619 12.9375 6.78938 14.8425C6.08063 15.1237 5.70875 15.4 5.67375 15.6712C5.6175 16.1269 6.18938 16.3069 6.9675 16.5525L7.29563 16.6556C8.06063 16.905 9.09188 17.1956 9.62625 17.2069C10.1137 17.2194 10.6562 17.0194 11.2537 16.6069C15.34 13.8494 17.4488 12.4556 17.58 12.4256C17.6737 12.4031 17.805 12.3769 17.8913 12.4556C17.9775 12.5344 17.97 12.6806 17.9606 12.72C17.9044 12.9619 15.66 15.0469 14.4994 16.1269C14.1375 16.4644 13.8806 16.7025 13.8281 16.7569C13.7126 16.8751 13.595 16.9913 13.4756 17.1056C12.7631 17.7919 12.2306 18.3056 13.5037 19.1456C14.1169 19.5506 14.6081 19.8825 15.0975 20.2162C15.63 20.58 16.1625 20.9419 16.8525 21.3956C17.0275 21.5106 17.1963 21.6275 17.3588 21.7463C17.9794 22.1887 18.54 22.5863 19.2281 22.5225C19.6294 22.485 20.0438 22.11 20.2537 20.985C20.7506 18.3281 21.7275 12.5737 21.9525 10.2019C21.9666 10.0047 21.9585 9.80658 21.9281 9.61125C21.9099 9.45376 21.8337 9.30871 21.7144 9.20438C21.5435 9.08707 21.3403 9.0261 21.1331 9.03C20.5706 9.03938 19.7025 9.34125 15.5381 11.0738Z" fill="#2F72FF"/>
</g>
<path d="M40.8711 24V9.36328H35.668V7.08984H48.6992V9.36328H43.4961V24H40.8711ZM53.1289 24.2461C51.9102 24.2461 50.8633 23.9844 49.9883 23.4609C49.1133 22.9375 48.4414 22.1953 47.9727 21.2344C47.5039 20.2734 47.2695 19.1406 47.2695 17.8359V17.8242C47.2695 16.5352 47.5039 15.4062 47.9727 14.4375C48.4492 13.4609 49.1133 12.7031 49.9648 12.1641C50.8242 11.625 51.832 11.3555 52.9883 11.3555C54.1445 11.3555 55.1406 11.6172 55.9766 12.1406C56.8203 12.6562 57.4688 13.3828 57.9219 14.3203C58.375 15.25 58.6016 16.3398 58.6016 17.5898V18.457H48.5469V16.6523H57.3711L56.1172 18.3281V17.3438C56.1172 16.4609 55.9844 15.7344 55.7188 15.1641C55.4531 14.5859 55.0859 14.1562 54.6172 13.875C54.1562 13.5859 53.6172 13.4414 53 13.4414C52.3906 13.4414 51.8438 13.5898 51.3594 13.8867C50.8828 14.1836 50.5078 14.625 50.2344 15.2109C49.9609 15.7891 49.8242 16.5 49.8242 17.3438V18.3281C49.8242 19.1328 49.9609 19.8203 50.2344 20.3906C50.5078 20.9609 50.8945 21.3984 51.3945 21.7031C51.8945 22.0078 52.4883 22.1602 53.1758 22.1602C53.6836 22.1602 54.1289 22.0859 54.5117 21.9375C54.9023 21.7812 55.2227 21.5781 55.4727 21.3281C55.7305 21.0781 55.9102 20.8047 56.0117 20.5078L56.0352 20.4141H58.4727L58.4375 20.543C58.3359 21.0117 58.1445 21.4688 57.8633 21.9141C57.5898 22.3516 57.2266 22.75 56.7734 23.1094C56.3203 23.4609 55.7891 23.7383 55.1797 23.9414C54.5703 24.1445 53.8867 24.2461 53.1289 24.2461ZM60.8516 24V6.9375H63.3945V24H60.8516ZM71.5039 24.2461C70.2852 24.2461 69.2383 23.9844 68.3633 23.4609C67.4883 22.9375 66.8164 22.1953 66.3477 21.2344C65.8789 20.2734 65.6445 19.1406 65.6445 17.8359V17.8242C65.6445 16.5352 65.8789 15.4062 66.3477 14.4375C66.8242 13.4609 67.4883 12.7031 68.3398 12.1641C69.1992 11.625 70.207 11.3555 71.3633 11.3555C72.5195 11.3555 73.5156 11.6172 74.3516 12.1406C75.1953 12.6562 75.8438 13.3828 76.2969 14.3203C76.75 15.25 76.9766 16.3398 76.9766 17.5898V18.457H66.9219V16.6523H75.7461L74.4922 18.3281V17.3438C74.4922 16.4609 74.3594 15.7344 74.0938 15.1641C73.8281 14.5859 73.4609 14.1562 72.9922 13.875C72.5312 13.5859 71.9922 13.4414 71.375 13.4414C70.7656 13.4414 70.2188 13.5898 69.7344 13.8867C69.2578 14.1836 68.8828 14.625 68.6094 15.2109C68.3359 15.7891 68.1992 16.5 68.1992 17.3438V18.3281C68.1992 19.1328 68.3359 19.8203 68.6094 20.3906C68.8828 20.9609 69.2695 21.3984 69.7695 21.7031C70.2695 22.0078 70.8633 22.1602 71.5508 22.1602C72.0586 22.1602 72.5039 22.0859 72.8867 21.9375C73.2773 21.7812 73.5977 21.5781 73.8477 21.3281C74.1055 21.0781 74.2852 20.8047 74.3867 20.5078L74.4102 20.4141H76.8477L76.8125 20.543C76.7109 21.0117 76.5195 21.4688 76.2383 21.9141C75.9648 22.3516 75.6016 22.75 75.1484 23.1094C74.6953 23.4609 74.1641 23.7383 73.5547 23.9414C72.9453 24.1445 72.2617 24.2461 71.5039 24.2461ZM84.5352 28.3711C83.4805 28.3711 82.5586 28.2227 81.7695 27.9258C80.9805 27.6289 80.3477 27.2227 79.8711 26.707C79.4023 26.1992 79.1094 25.625 78.9922 24.9844L78.9805 24.8906H81.5117L81.5469 24.9727C81.7031 25.3711 82.0391 25.6953 82.5547 25.9453C83.0703 26.2031 83.7305 26.332 84.5352 26.332C85.543 26.332 86.3203 26.082 86.8672 25.582C87.4219 25.0898 87.6992 24.4141 87.6992 23.5547V21.7148H87.6172C87.375 22.168 87.0625 22.5586 86.6797 22.8867C86.2969 23.207 85.8555 23.457 85.3555 23.6367C84.8633 23.8086 84.3203 23.8945 83.7266 23.8945C82.6875 23.8945 81.7773 23.6406 80.9961 23.1328C80.2227 22.6172 79.6211 21.8906 79.1914 20.9531C78.7695 20.0156 78.5586 18.918 78.5586 17.6602V17.6484C78.5586 16.3672 78.7734 15.2578 79.2031 14.3203C79.6406 13.3828 80.2461 12.6562 81.0195 12.1406C81.8008 11.625 82.7188 11.3672 83.7734 11.3672C84.3594 11.3672 84.8945 11.4648 85.3789 11.6602C85.8711 11.8477 86.3047 12.1172 86.6797 12.4688C87.0625 12.8203 87.375 13.2305 87.6172 13.6992H87.6875V11.6016H90.2422V23.6719C90.2422 24.6172 90.0078 25.4414 89.5391 26.1445C89.0781 26.8477 88.4219 27.3945 87.5703 27.7852C86.7188 28.1758 85.707 28.3711 84.5352 28.3711ZM84.4414 21.8203C85.0977 21.8203 85.668 21.6523 86.1523 21.3164C86.6445 20.9727 87.0273 20.4883 87.3008 19.8633C87.5742 19.2383 87.7109 18.5117 87.7109 17.6836V17.6719C87.7109 16.8359 87.5742 16.1094 87.3008 15.4922C87.0273 14.875 86.6445 14.3984 86.1523 14.0625C85.668 13.7188 85.0977 13.5469 84.4414 13.5469C83.7695 13.5469 83.1875 13.7148 82.6953 14.0508C82.2031 14.3867 81.8242 14.8633 81.5586 15.4805C81.293 16.0977 81.1602 16.8242 81.1602 17.6602V17.6836C81.1602 18.5273 81.2891 19.2617 81.5469 19.8867C81.8125 20.5039 82.1914 20.9805 82.6836 21.3164C83.1836 21.6523 83.7695 21.8203 84.4414 21.8203ZM92.9492 24V11.6016H95.5039V13.6758H95.5859C95.7812 12.957 96.1328 12.3945 96.6406 11.9883C97.1562 11.5742 97.7812 11.3672 98.5156 11.3672C98.7031 11.3672 98.8789 11.3789 99.043 11.4023C99.207 11.418 99.3398 11.4375 99.4414 11.4609V13.8281C99.3164 13.7812 99.1484 13.7461 98.9375 13.7227C98.7266 13.6914 98.4961 13.6758 98.2461 13.6758C97.6914 13.6758 97.207 13.793 96.793 14.0273C96.3789 14.2617 96.0586 14.5977 95.832 15.0352C95.6133 15.4727 95.5039 15.9961 95.5039 16.6055V24H92.9492ZM104.527 24.2227C103.715 24.2227 102.996 24.0664 102.371 23.7539C101.746 23.4414 101.258 23.0039 100.906 22.4414C100.562 21.8789 100.391 21.2266 100.391 20.4844V20.4609C100.391 19.375 100.793 18.5156 101.598 17.8828C102.402 17.2422 103.539 16.8789 105.008 16.793L109.672 16.5234V18.3047L105.348 18.5742C104.566 18.6211 103.969 18.8047 103.555 19.125C103.148 19.4375 102.945 19.8594 102.945 20.3906V20.4141C102.945 20.9609 103.152 21.3945 103.566 21.7148C103.988 22.0273 104.539 22.1836 105.219 22.1836C105.82 22.1836 106.359 22.0625 106.836 21.8203C107.312 21.5703 107.688 21.2344 107.961 20.8125C108.234 20.3828 108.371 19.9023 108.371 19.3711V15.6328C108.371 14.9531 108.156 14.4219 107.727 14.0391C107.305 13.6562 106.695 13.4648 105.898 13.4648C105.172 13.4648 104.586 13.6172 104.141 13.9219C103.703 14.2188 103.426 14.6094 103.309 15.0938L103.285 15.1875H100.883L100.895 15.0586C100.965 14.3555 101.211 13.7266 101.633 13.1719C102.055 12.6094 102.633 12.168 103.367 11.8477C104.109 11.5195 104.98 11.3555 105.98 11.3555C106.996 11.3555 107.871 11.5234 108.605 11.8594C109.348 12.1953 109.918 12.6719 110.316 13.2891C110.715 13.9062 110.914 14.6328 110.914 15.4688V24H108.371V22.0898H108.301C108.059 22.5195 107.746 22.8945 107.363 23.2148C106.988 23.5352 106.559 23.7852 106.074 23.9648C105.59 24.1367 105.074 24.2227 104.527 24.2227ZM113.574 24V11.6016H116.129V13.5117H116.211C116.477 12.8633 116.906 12.3438 117.5 11.9531C118.102 11.5547 118.809 11.3555 119.621 11.3555C120.191 11.3555 120.703 11.4531 121.156 11.6484C121.617 11.8359 122.012 12.1094 122.34 12.4688C122.668 12.8203 122.914 13.2539 123.078 13.7695H123.16C123.371 13.2695 123.664 12.8398 124.039 12.4805C124.422 12.1211 124.863 11.8438 125.363 11.6484C125.871 11.4531 126.418 11.3555 127.004 11.3555C127.824 11.3555 128.535 11.5273 129.137 11.8711C129.746 12.207 130.215 12.6836 130.543 13.3008C130.879 13.9102 131.047 14.6328 131.047 15.4688V24H128.492V16.0781C128.492 15.2656 128.289 14.6406 127.883 14.2031C127.477 13.7656 126.891 13.5469 126.125 13.5469C125.617 13.5469 125.168 13.6641 124.777 13.8984C124.395 14.125 124.094 14.4414 123.875 14.8477C123.664 15.2461 123.559 15.707 123.559 16.2305V24H121.051V15.8906C121.051 15.1641 120.84 14.5938 120.418 14.1797C119.996 13.7578 119.426 13.5469 118.707 13.5469C118.207 13.5469 117.762 13.668 117.371 13.9102C116.988 14.1523 116.684 14.4844 116.457 14.9062C116.238 15.3281 116.129 15.8086 116.129 16.3477V24H113.574Z" fill="#2F72FF"/>
<defs>
<clipPath id="clip0_33_276">
<rect width="30" height="30" fill="white"/>
</clipPath>
</defs>
</svg>
