<svg width="60" height="52" viewBox="0 0 60 52" fill="none" xmlns="http://www.w3.org/2000/svg">
<path fill-rule="evenodd" clip-rule="evenodd" d="M21.464 15.4001L28 7.48004V35.996C28 37.104 28.894 38.0001 30 38.0001C31.106 38.0001 32 37.104 32 35.996V7.40411L38.598 15.4001C39.38 16.1901 40.652 16.1901 41.438 15.4001C42.22 14.6141 42.22 13.336 41.438 12.548L31.552 0.566099C31.132 0.146099 30.578 -0.0339692 30.032 -0.00396918C29.484 -0.0339692 28.93 0.146099 28.512 0.566099L18.626 12.548C17.842 13.336 17.842 14.6141 18.626 15.4001C19.41 16.1901 20.682 16.1901 21.464 15.4001ZM58 32.0001C56.894 32.0001 56 32.8961 56 34.0001V48.0001H4V34.0001C4 32.8961 3.106 32.0001 2 32.0001C0.894 32.0001 0 32.8961 0 34.0001V50.0001C0 51.1061 0.894 52.0001 2 52.0001H58C59.106 52.0001 60 51.1061 60 50.0001V34.0001C60 32.8961 59.106 32.0001 58 32.0001Z" fill="#2F72FF"/>
</svg>
